<!DOCTYPE svg PUBLIC "-//W3C//DTD SVG 1.1//EN" "https://www.w3.org/Graphics/SVG/1.1/DTD/svg11.dtd"><svg xmlns="http://www.w3.org/2000/svg" id="sfn-svg" class="sfn-workflow-graph" width="289" height="610">
    
    
<g transform="translate(12,19.139326095581055)"><g class="nodes"><g class="node-container" transform="translate(132.25260162353516,18.75)"><g class="node anchor"><circle class="shape" x="-15.889326095581055" y="-8.75" r="25.889326095581055"/><text class="label"><tspan xml:space="preserve" text-anchor="middle" alignment-baseline="central">Start</tspan></text></g></g><g class="node-container" transform="translate(132.25260162353516,556.2500076293945)"><g class="node anchor"><circle class="shape" x="-12.174478530883789" y="-8.75" r="22.17447853088379"/><text class="label"><tspan xml:space="preserve" text-anchor="middle" alignment-baseline="central">End</tspan></text></g></g><g class="node-container" transform="translate(132.25260162353516,81.25)"><g class="node state Task NotYetStarted"><rect class="shape" rx="5" ry="5" x="-60.162757873535156" y="-18.75" width="120.32551574707031" height="37.5"/><text class="label"><tspan xml:space="preserve" text-anchor="middle" alignment-baseline="central">GetStackNames</tspan></text></g></g><g class="node-container" transform="translate(132.25260162353516,195.00000381469727)"><g class="node state Map NotYetStarted Container" transform="translate(-74.90559768676758,-70.00000381469727)"><rect class="shape" rx="5" ry="5" x="-10" y="-10" width="147.81119537353516" height="138.00000762939453"/><rect class="shape" rx="5" ry="5" x="-5" y="-5" width="148.81119537353516" height="139.00000762939453"/><rect class="shape" rx="5" ry="5" x="0" y="0" width="149.81119537353516" height="140.00000762939453"/><g class="branches" transform="translate(20,20)"><g class="branch" transform="translate(0,0)"><g class="nodes"><g class="node-container" transform="translate(54.90559768676758,18.75)"><g class="node state Task NotYetStarted"><rect class="shape" rx="5" ry="5" x="-51.02864456176758" y="-18.75" width="102.05728912353516" height="37.5"/><text class="label"><tspan xml:space="preserve" text-anchor="middle" alignment-baseline="central">GetTemplate</tspan></text></g></g><g class="node-container" transform="translate(54.90559768676758,81.25)"><g class="node state Task NotYetStarted"><rect class="shape" rx="5" ry="5" x="-54.90559768676758" y="-18.75" width="109.81119537353516" height="37.5"/><text class="label"><tspan xml:space="preserve" text-anchor="middle" alignment-baseline="central">ExtractHashes</tspan></text></g></g></g><g class="edges"><g class="edge"><path class="path" marker-end="url(#arrowhead31)" d="M54.90559768676758,37.5L54.90559768676757,39.58333333333333C54.90559768676758,41.666666666666664,54.90559768676758,45.83333333333333,54.90559768676757,49.99999999999999C54.90559768676758,54.16666666666666,54.90559768676758,58.33333333333333,54.90559768676757,60.416666666666664L54.90559768676758,62.5" style="fill: none;"/><defs><marker id="arrowhead31" viewBox="0 0 10 10" refX="9" refY="5" markerUnits="strokeWidth" markerWidth="8" markerHeight="6" orient="auto"><path d="M 0 0 L 10 5 L 0 10 z"/></marker></defs></g></g></g></g><path class="path" marker-end="url(#arrowhead32)" d="M74.90559768676758,0L74.90559768676758,1.6666666666666665C74.90559768676758,3.333333333333333,74.90559768676758,6.666666666666666,74.90559768676758,8.333333333333332C74.90559768676758,10,74.90559768676758,10,74.90559768676758,11.666666666666664C74.90559768676758,13.333333333333332,74.90559768676758,16.666666666666664,74.90559768676758,18.333333333333332L74.90559768676758,20" style="fill: none;"/></g></g><g class="node-container" transform="translate(132.25260162353516,308.75000762939453)"><g class="node state Task NotYetStarted"><rect class="shape" rx="5" ry="5" x="-55.185546875" y="-18.75" width="110.37109375" height="37.5"/><text class="label"><tspan xml:space="preserve" text-anchor="middle" alignment-baseline="central">FlattenHashes</tspan></text></g></g><g class="node-container" transform="translate(132.25260162353516,401.25000762939453)"><g class="node state Parallel NotYetStarted Container" transform="translate(-132.25260162353516,-48.75)"><rect class="shape" rx="19.5" ry="19.5" x="0" y="0" width="264.5052032470703" height="97.5"/><g class="branches" transform="translate(20,40)"><g class="branch" transform="translate(0,0)"><g class="nodes"><g class="node-container" transform="translate(51.826171875,18.75)"><g class="node state Task NotYetStarted"><rect class="shape" rx="5" ry="5" x="-51.826171875" y="-18.75" width="103.65234375" height="37.5"/><text class="label"><tspan xml:space="preserve" text-anchor="middle" alignment-baseline="central">CleanObjects</tspan></text></g></g></g><g class="edges"/></g><g class="branch" transform="translate(123.65234375,0)"><g class="nodes"><g class="node-container" transform="translate(50.426429748535156,18.75)"><g class="node state Task NotYetStarted"><rect class="shape" rx="5" ry="5" x="-50.426429748535156" y="-18.75" width="100.85285949707031" height="37.5"/><text class="label"><tspan xml:space="preserve" text-anchor="middle" alignment-baseline="central">CleanImages</tspan></text></g></g></g><g class="edges"/></g></g><path class="path" marker-end="url(#arrowhead33)" d="M132.25260162353516,0L132.25260162353516,3.333333333333333C132.25260162353516,6.666666666666666,132.25260162353516,13.333333333333332,122.18152999877928,16.666666666666664C112.11045837402344,20,91.96831512451172,20,81.89724349975585,23.33333333333333C71.826171875,26.666666666666664,71.826171875,33.33333333333333,71.82617187499999,36.666666666666664L71.826171875,40" style="fill: none;"/><path class="path" marker-end="url(#arrowhead34)" d="M132.25260162353516,0L132.25260162353516,3.333333333333333C132.25260162353516,6.666666666666666,132.25260162353516,13.333333333333332,142.5569636027018,16.666666666666664C152.86132558186847,20,173.4700495402018,20,183.7744115193685,23.33333333333333C194.07877349853516,26.666666666666664,194.07877349853516,33.33333333333333,194.07877349853516,36.666666666666664L194.07877349853516,40" style="fill: none;"/></g></g><g class="node-container" transform="translate(132.25260162353516,493.75000762939453)"><g class="node state Task NotYetStarted"><rect class="shape" rx="5" ry="5" x="-56.97265625" y="-18.75" width="113.9453125" height="37.5"/><text class="label"><tspan xml:space="preserve" text-anchor="middle" alignment-baseline="central">SumReclaimed</tspan></text></g></g></g><g class="edges"><g class="edge"><path class="path" marker-end="url(#arrowhead35)" d="M132.25260162353516,100L132.25260162353516,102.08333333333331C132.25260162353516,104.16666666666666,132.25260162353516,108.33333333333333,132.25260162353516,112.49999999999999C132.25260162353516,116.66666666666666,132.25260162353516,120.83333333333333,132.25260162353516,122.91666666666666L132.25260162353516,125" style="fill: none;"/><defs><marker id="arrowhead35" viewBox="0 0 10 10" refX="9" refY="5" markerUnits="strokeWidth" markerWidth="8" markerHeight="6" orient="auto"><path d="M 0 0 L 10 5 L 0 10 z"/></marker></defs></g><g class="edge"><path class="path" marker-end="url(#arrowhead36)" d="M132.25260162353516,44.639326095581055L132.25260162353516,45.532771746317536C132.25260162353516,46.42621739705403,132.25260162353516,48.21310869852701,132.25260162353516,51.18988768259683C132.25260162353516,54.16666666666666,132.25260162353516,58.33333333333333,132.25260162353516,60.416666666666664L132.25260162353516,62.5" style="fill: none;"/><defs><marker id="arrowhead36" viewBox="0 0 10 10" refX="9" refY="5" markerUnits="strokeWidth" markerWidth="8" markerHeight="6" orient="auto"><path d="M 0 0 L 10 5 L 0 10 z"/></marker></defs></g><g class="edge"><path class="path" marker-end="url(#arrowhead37)" d="M132.25260162353516,265.00000762939453L132.25260162353516,267.08334096272785C132.25260162353516,269.16667429606116,132.25260162353516,273.33334096272785,132.25260162353516,277.50000762939453C132.25260162353516,281.66667429606116,132.25260162353516,285.83334096272785,132.25260162353516,287.9166742960612L132.25260162353516,290.00000762939453" style="fill: none;"/><defs><marker id="arrowhead37" viewBox="0 0 10 10" refX="9" refY="5" markerUnits="strokeWidth" markerWidth="8" markerHeight="6" orient="auto"><path d="M 0 0 L 10 5 L 0 10 z"/></marker></defs></g><g class="edge"><path class="path" marker-end="url(#arrowhead38)" d="M132.25260162353516,327.50000762939453L132.25260162353516,329.58334096272785C132.25260162353516,331.66667429606116,132.25260162353516,335.83334096272785,132.25260162353516,340.00000762939453C132.25260162353516,344.16667429606116,132.25260162353516,348.33334096272785,132.25260162353516,350.41667429606116L132.25260162353516,352.50000762939453" style="fill: none;"/><defs><marker id="arrowhead38" viewBox="0 0 10 10" refX="9" refY="5" markerUnits="strokeWidth" markerWidth="8" markerHeight="6" orient="auto"><path d="M 0 0 L 10 5 L 0 10 z"/></marker></defs></g><g class="edge"><path class="path" marker-end="url(#arrowhead39)" d="M132.25260162353516,450.00000762939453L132.25260162353516,452.0833409627278C132.25260162353516,454.16667429606116,132.25260162353516,458.3333409627278,132.25260162353516,462.5000076293945C132.25260162353516,466.66667429606116,132.25260162353516,470.83334096272785,132.25260162353516,472.91667429606116L132.25260162353516,475.00000762939453" style="fill: none;"/><defs><marker id="arrowhead39" viewBox="0 0 10 10" refX="9" refY="5" markerUnits="strokeWidth" markerWidth="8" markerHeight="6" orient="auto"><path d="M 0 0 L 10 5 L 0 10 z"/></marker></defs></g><g class="edge"><path class="path" marker-end="url(#arrowhead40)" d="M132.25260162353516,512.5000076293945L132.25260162353516,514.5833409627279C132.25260162353516,516.6666742960612,132.25260162353516,520.8333409627278,132.25260162353516,524.4292612075806C132.25260162353516,528.0251814524332,132.25260162353516,531.0503552754719,132.25260162353516,532.5629421869913L132.25260162353516,534.0755290985107" style="fill: none;"/><defs><marker id="arrowhead40" viewBox="0 0 10 10" refX="9" refY="5" markerUnits="strokeWidth" markerWidth="8" markerHeight="6" orient="auto"><path d="M 0 0 L 10 5 L 0 10 z"/></marker></defs></g></g></g><style xmlns="http://www.w3.org/1999/xhtml">.node &gt; .shape {stroke: #555555;stroke-width: 0.6px;fill: #FFFFFF;} path {stroke: #555;background-color: #555;stroke-width: 1px;} .node.state.NotYetStarted &gt; .shape,.node.state.Container &gt; .shape {stroke-dasharray: 5 2;} .node.state.Failed &gt; .shape,rect.legend.Failed {fill: #DE322F;} .node.state.CaughtError &gt; .shape,rect.legend.CaughtError {fill: #FFA500;} .node.state.Succeeded &gt; .shape,rect.legend.Succeeded {fill: #2BD62E;} .node.state.InProgress &gt; .shape,rect.legend.InProgress {fill: #53c9ed;} .node.state.Cancelled &gt; .shape,rect.legend.Cancelled {fill: #dddddd;} .node.anchor &gt; .shape {fill: #FFDA75;} .node.state.hovered:not(.selected):not(.NotYetStarted) &gt; .shape,.node.selected &gt; .shape {stroke: #555555;stroke-width: 2px;} .node.state.Container.Failed &gt; .shape {fill: #EE9592;} .node.state.Container.CaughtError &gt; .shape {fill: #FFD27F;} .node.state.Container.Succeeded &gt; .shape {fill: #91EA9A;} .node.state.Container.InProgress &gt; .shape {fill :#A9E4F7;} .node.state.Container.Cancelled &gt; .shape {fill: #EEEEEE;} marker {fill: #555555;} .node.anchor,.node.state.NotYetStarted {cursor: default;} .node.state {cursor: pointer;} tspan .label {font-weight: normal;font-size: 12px;text-shadow: none;} </style></svg>