<!DOCTYPE svg PUBLIC "-//W3C//DTD SVG 1.1//EN" "https://www.w3.org/Graphics/SVG/1.1/DTD/svg11.dtd"><svg xmlns="http://www.w3.org/2000/svg" id="sfn-svg" class="sfn-workflow-graph" width="289" height="548">
    
    
<g transform="translate(12,19.555980682373047)"><g class="nodes"><g class="node-container" transform="translate(132.4518585205078,18.75)"><g class="node anchor"><circle class="shape" x="-16.305980682373047" y="-8.75" r="26.305980682373047"/><text class="label"><tspan xml:space="preserve" text-anchor="middle" alignment-baseline="central">Start</tspan></text></g></g><g class="node-container" transform="translate(132.4518585205078,493.75)"><g class="node anchor"><circle class="shape" x="-12.177734375" y="-8.75" r="22.177734375"/><text class="label"><tspan xml:space="preserve" text-anchor="middle" alignment-baseline="central">End</tspan></text></g></g><g class="node-container" transform="translate(132.4518585205078,81.25)"><g class="node state Task NotYetStarted"><rect class="shape" rx="5" ry="5" x="-60.262939453125" y="-18.75" width="120.52587890625" height="37.5"/><text class="label"><tspan xml:space="preserve" text-anchor="middle" alignment-baseline="central">GetStackNames</tspan></text></g></g><g class="node-container" transform="translate(132.4518585205078,163.75)"><g class="node state Map NotYetStarted Container" transform="translate(-104.80488586425781,-38.75)"><rect class="shape" rx="5" ry="5" x="-10" y="-10" width="207.60977172851562" height="75.5"/><rect class="shape" rx="5" ry="5" x="-5" y="-5" width="208.60977172851562" height="76.5"/><rect class="shape" rx="5" ry="5" x="0" y="0" width="209.60977172851562" height="77.5"/><g class="branches" transform="translate(20,20)"><g class="branch" transform="translate(0,0)"><g class="nodes"><g class="node-container" transform="translate(84.80488586425781,18.75)"><g class="node state Task NotYetStarted"><rect class="shape" rx="5" ry="5" x="-84.80488586425781" y="-18.75" width="169.60977172851562" height="37.5"/><text class="label"><tspan xml:space="preserve" text-anchor="middle" alignment-baseline="central">ExtractTemplateHashes</tspan></text></g></g></g><g class="edges"/></g></g><path class="path" marker-end="url(#arrowhead109)" d="M104.80488586425781,0L104.8048858642578,1.6666666666666665C104.80488586425781,3.333333333333333,104.80488586425781,6.666666666666666,104.8048858642578,8.333333333333332C104.80488586425781,10,104.80488586425781,10,104.8048858642578,11.666666666666664C104.80488586425781,13.333333333333332,104.80488586425781,16.666666666666664,104.8048858642578,18.333333333333332L104.80488586425781,20" style="fill: none;"/></g></g><g class="node-container" transform="translate(132.4518585205078,246.25)"><g class="node state Task NotYetStarted"><rect class="shape" rx="5" ry="5" x="-55.28593063354492" y="-18.75" width="110.57186126708984" height="37.5"/><text class="label"><tspan xml:space="preserve" text-anchor="middle" alignment-baseline="central">FlattenHashes</tspan></text></g></g><g class="node-container" transform="translate(132.4518585205078,338.75)"><g class="node state Parallel NotYetStarted Container" transform="translate(-132.4518585205078,-48.75)"><rect class="shape" rx="19.5" ry="19.5" x="0" y="0" width="264.9037170410156" height="97.5"/><g class="branches" transform="translate(20,40)"><g class="branch" transform="translate(0,0)"><g class="nodes"><g class="node-container" transform="translate(51.925926208496094,18.75)"><g class="node state Task NotYetStarted"><rect class="shape" rx="5" ry="5" x="-51.925926208496094" y="-18.75" width="103.85185241699219" height="37.5"/><text class="label"><tspan xml:space="preserve" text-anchor="middle" alignment-baseline="central">CleanObjects</tspan></text></g></g></g><g class="edges"/></g><g class="branch" transform="translate(123.85185241699219,0)"><g class="nodes"><g class="node-container" transform="translate(50.52592468261719,18.75)"><g class="node state Task NotYetStarted"><rect class="shape" rx="5" ry="5" x="-50.52592468261719" y="-18.75" width="101.05184936523438" height="37.5"/><text class="label"><tspan xml:space="preserve" text-anchor="middle" alignment-baseline="central">CleanImages</tspan></text></g></g></g><g class="edges"/></g></g><path class="path" marker-end="url(#arrowhead110)" d="M132.4518585205078,0L132.4518585205078,3.333333333333333C132.4518585205078,6.666666666666666,132.4518585205078,13.333333333333332,122.36420313517253,16.666666666666664C112.27654774983723,20,92.10123697916666,20,82.01358159383138,23.33333333333333C71.9259262084961,26.666666666666664,71.9259262084961,33.33333333333333,71.9259262084961,36.666666666666664L71.9259262084961,40" style="fill: none;"/><path class="path" marker-end="url(#arrowhead111)" d="M132.4518585205078,0L132.4518585205078,3.333333333333333C132.4518585205078,6.666666666666666,132.4518585205078,13.333333333333332,142.77284495035806,16.666666666666664C153.09383138020831,20,173.73580423990884,20,184.0567906697591,23.33333333333333C194.37777709960938,26.666666666666664,194.37777709960938,33.33333333333333,194.37777709960935,36.666666666666664L194.37777709960938,40" style="fill: none;"/></g></g><g class="node-container" transform="translate(132.4518585205078,431.25)"><g class="node state Task NotYetStarted"><rect class="shape" rx="5" ry="5" x="-56.97265625" y="-18.75" width="113.9453125" height="37.5"/><text class="label"><tspan xml:space="preserve" text-anchor="middle" alignment-baseline="central">SumReclaimed</tspan></text></g></g></g><g class="edges"><g class="edge"><path class="path" marker-end="url(#arrowhead112)" d="M132.4518585205078,100L132.4518585205078,102.08333333333331C132.4518585205078,104.16666666666666,132.4518585205078,108.33333333333333,132.4518585205078,112.49999999999999C132.4518585205078,116.66666666666666,132.4518585205078,120.83333333333333,132.4518585205078,122.91666666666666L132.4518585205078,125" style="fill: none;"/><defs><marker id="arrowhead112" viewBox="0 0 10 10" refX="9" refY="5" markerUnits="strokeWidth" markerWidth="8" markerHeight="6" orient="auto"><path d="M 0 0 L 10 5 L 0 10 z"/></marker></defs></g><g class="edge"><path class="path" marker-end="url(#arrowhead113)" d="M132.4518585205078,45.05598068237305L132.4518585205078,45.87998390197754C132.4518585205078,46.70398712158203,132.4518585205078,48.35199356079101,132.4518585205078,51.259330113728836C132.4518585205078,54.16666666666666,132.4518585205078,58.33333333333333,132.4518585205078,60.416666666666664L132.4518585205078,62.5" style="fill: none;"/><defs><marker id="arrowhead113" viewBox="0 0 10 10" refX="9" refY="5" markerUnits="strokeWidth" markerWidth="8" markerHeight="6" orient="auto"><path d="M 0 0 L 10 5 L 0 10 z"/></marker></defs></g><g class="edge"><path class="path" marker-end="url(#arrowhead114)" d="M132.4518585205078,202.5L132.4518585205078,204.58333333333331C132.4518585205078,206.66666666666666,132.4518585205078,210.83333333333331,132.4518585205078,214.99999999999997C132.4518585205078,219.16666666666663,132.4518585205078,223.33333333333331,132.4518585205078,225.41666666666666L132.4518585205078,227.5" style="fill: none;"/><defs><marker id="arrowhead114" viewBox="0 0 10 10" refX="9" refY="5" markerUnits="strokeWidth" markerWidth="8" markerHeight="6" orient="auto"><path d="M 0 0 L 10 5 L 0 10 z"/></marker></defs></g><g class="edge"><path class="path" marker-end="url(#arrowhead115)" d="M132.4518585205078,265L132.4518585205078,267.0833333333333C132.4518585205078,269.16666666666663,132.4518585205078,273.3333333333333,132.4518585205078,277.5C132.4518585205078,281.66666666666663,132.4518585205078,285.8333333333333,132.4518585205078,287.91666666666663L132.4518585205078,290" style="fill: none;"/><defs><marker id="arrowhead115" viewBox="0 0 10 10" refX="9" refY="5" markerUnits="strokeWidth" markerWidth="8" markerHeight="6" orient="auto"><path d="M 0 0 L 10 5 L 0 10 z"/></marker></defs></g><g class="edge"><path class="path" marker-end="url(#arrowhead116)" d="M132.4518585205078,387.5L132.4518585205078,389.58333333333326C132.4518585205078,391.66666666666663,132.4518585205078,395.83333333333326,132.4518585205078,399.99999999999994C132.4518585205078,404.16666666666663,132.4518585205078,408.3333333333333,132.4518585205078,410.41666666666663L132.4518585205078,412.5" style="fill: none;"/><defs><marker id="arrowhead116" viewBox="0 0 10 10" refX="9" refY="5" markerUnits="strokeWidth" markerWidth="8" markerHeight="6" orient="auto"><path d="M 0 0 L 10 5 L 0 10 z"/></marker></defs></g><g class="edge"><path class="path" marker-end="url(#arrowhead117)" d="M132.4518585205078,450L132.4518585205078,452.0833333333333C132.4518585205078,454.16666666666663,132.4518585205078,458.3333333333333,132.4518585205078,461.9287109375C132.4518585205078,465.52408854166663,132.4518585205078,468.54817708333326,132.4518585205078,470.06022135416663L132.4518585205078,471.572265625" style="fill: none;"/><defs><marker id="arrowhead117" viewBox="0 0 10 10" refX="9" refY="5" markerUnits="strokeWidth" markerWidth="8" markerHeight="6" orient="auto"><path d="M 0 0 L 10 5 L 0 10 z"/></marker></defs></g></g></g><style xmlns="http://www.w3.org/1999/xhtml">.node &gt; .shape {stroke: #555555;stroke-width: 0.6px;fill: #FFFFFF;} path {stroke: #555;background-color: #555;stroke-width: 1px;} .node.state.NotYetStarted &gt; .shape,.node.state.Container &gt; .shape {stroke-dasharray: 5 2;} .node.state.Failed &gt; .shape,rect.legend.Failed {fill: #DE322F;} .node.state.CaughtError &gt; .shape,rect.legend.CaughtError {fill: #FFA500;} .node.state.Succeeded &gt; .shape,rect.legend.Succeeded {fill: #2BD62E;} .node.state.InProgress &gt; .shape,rect.legend.InProgress {fill: #53c9ed;} .node.state.Cancelled &gt; .shape,rect.legend.Cancelled {fill: #dddddd;} .node.anchor &gt; .shape {fill: #FFDA75;} .node.state.hovered:not(.selected):not(.NotYetStarted) &gt; .shape,.node.selected &gt; .shape {stroke: #555555;stroke-width: 2px;} .node.state.Container.Failed &gt; .shape {fill: #EE9592;} .node.state.Container.CaughtError &gt; .shape {fill: #FFD27F;} .node.state.Container.Succeeded &gt; .shape {fill: #91EA9A;} .node.state.Container.InProgress &gt; .shape {fill :#A9E4F7;} .node.state.Container.Cancelled &gt; .shape {fill: #EEEEEE;} marker {fill: #555555;} .node.anchor,.node.state.NotYetStarted {cursor: default;} .node.state {cursor: pointer;} tspan .label {font-weight: normal;font-size: 12px;text-shadow: none;} </style></svg>